<?xml version="1.0" standalone="no"?>
<!DOCTYPE svg PUBLIC "-//W3C//DTD SVG 20010904//EN"
 "http://www.w3.org/TR/2001/REC-SVG-20010904/DTD/svg10.dtd">
<svg version="1.0" xmlns="http://www.w3.org/2000/svg"
 width="524.000000pt" height="524.000000pt" viewBox="0 0 524.000000 524.000000"
 preserveAspectRatio="xMidYMid meet">
<metadata>
Created by potrace 1.14, written by Peter Selinger 2001-2017
</metadata>
<g transform="translate(0.000000,524.000000) scale(0.100000,-0.100000)"
fill="#000000" stroke="none">
<path d="M0 2620 l0 -2620 2620 0 2620 0 0 2620 0 2620 -2620 0 -2620 0 0
-2620z m2838 1903 c67 -51 73 -58 119 -128 25 -38 62 -89 83 -111 l38 -41 96
39 97 40 35 -27 c19 -15 70 -68 112 -118 42 -50 102 -117 132 -148 30 -31 96
-97 145 -148 50 -51 81 -89 70 -85 -11 5 -78 39 -150 77 -71 38 -173 92 -225
119 -52 28 -101 55 -107 60 -7 6 -13 7 -13 4 0 -4 78 -86 173 -184 279 -286
366 -377 362 -381 -2 -2 -17 7 -32 19 -15 12 -209 141 -429 287 l-401 264 -59
134 c-32 73 -61 132 -65 129 -3 -2 -37 -69 -73 -149 -49 -106 -64 -150 -57
-159 6 -7 105 -75 222 -152 161 -106 206 -140 188 -142 -13 -1 -84 4 -157 11
l-133 13 73 -75 c40 -42 109 -114 153 -160 l80 -84 -60 46 c-69 53 -191 150
-220 175 -11 10 -66 55 -122 100 -56 46 -121 106 -146 135 -25 29 -64 63 -87
77 -23 14 -72 49 -110 78 -38 28 -73 52 -78 52 -4 0 -29 -30 -55 -67 -25 -38
-69 -88 -97 -112 -28 -24 -60 -62 -72 -85 l-20 -42 36 -75 c49 -106 88 -213
74 -202 -138 105 -229 163 -257 163 -37 0 -36 3 -20 -153 6 -59 9 -110 6 -114
-11 -10 -73 35 -124 91 -28 30 -70 64 -94 76 -51 26 -99 23 -226 -14 l-82 -23
14 26 c7 15 35 46 62 70 90 80 105 96 123 131 22 42 50 69 111 104 25 14 54
35 65 47 30 33 143 114 224 160 41 23 94 64 118 90 23 26 71 70 107 98 l63 50
49 -57 c26 -31 59 -70 74 -85 l26 -29 56 36 c60 38 154 141 211 229 28 45 122
147 134 147 2 0 20 -12 40 -27z m178 -1670 c59 -36 115 -110 94 -124 -39 -25
-62 -22 -87 10 -72 92 -235 100 -314 14 -49 -52 -61 -89 -57 -173 3 -68 7 -84
34 -122 60 -84 180 -114 269 -67 38 20 49 30 80 72 12 17 15 17 49 3 20 -8 36
-19 36 -24 0 -21 -68 -91 -113 -116 -56 -32 -167 -45 -234 -27 -72 20 -133 69
-171 138 -31 58 -34 70 -34 151 0 131 41 211 139 269 83 48 227 47 309 -4z
m-2460 11 c68 -36 90 -59 125 -130 25 -51 30 -73 31 -135 0 -77 -28 -175 -57
-199 -23 -19 -19 -31 31 -82 l47 -47 -34 -14 c-34 -14 -34 -14 -79 29 l-45 43
-30 -17 c-22 -12 -56 -17 -125 -17 -80 0 -102 4 -137 23 -115 61 -158 137
-158 277 0 105 20 157 82 217 60 58 114 78 214 78 73 0 93 -4 135 -26z m496
-186 c3 -232 9 -259 64 -295 33 -21 100 -21 141 1 58 30 63 51 63 291 l0 215
46 0 45 0 -3 -227 c-3 -215 -4 -231 -26 -270 -32 -60 -84 -92 -163 -99 -38 -4
-82 -1 -109 6 -56 15 -114 72 -129 125 -6 23 -11 128 -11 253 l0 212 39 0 40
0 3 -212z m728 -83 l0 -295 -45 0 -45 0 0 288 c0 159 3 292 7 295 3 4 24 7 45
7 l38 0 0 -295z m390 35 l0 -260 100 0 100 0 0 -35 0 -35 -145 0 -145 0 0 295
0 295 45 0 45 0 0 -260z m1520 220 l0 -40 -115 0 -115 0 0 -90 0 -90 100 0
100 0 0 -40 0 -40 -100 0 -100 0 0 -90 0 -90 115 0 115 0 0 -35 0 -35 -160 0
-160 0 0 295 0 295 160 0 160 0 0 -40z m390 -12 c19 -29 86 -132 150 -228
l115 -175 3 228 2 227 45 0 45 0 0 -295 0 -295 -48 0 -48 0 -135 206 c-74 113
-142 216 -151 227 -17 21 -17 11 -18 -205 l0 -228 -40 0 -40 0 0 295 0 295 43
0 c42 0 45 -2 77 -52z m980 12 l0 -40 -115 0 -115 0 0 -90 0 -90 100 0 100 0
0 -40 0 -40 -100 0 -100 0 0 -90 0 -90 115 0 115 0 0 -35 0 -35 -160 0 -160 0
0 295 0 295 160 0 160 0 0 -40z m-2552 -856 c41 -17 102 -71 102 -90 0 -7 -9
-16 -20 -19 -14 -5 -32 4 -62 29 -34 29 -50 36 -85 36 -78 0 -136 -46 -148
-119 -9 -53 9 -111 45 -146 24 -23 41 -30 89 -33 56 -4 60 -3 99 33 30 27 47
35 62 30 28 -9 25 -26 -12 -62 -48 -45 -70 -53 -143 -53 -72 0 -105 13 -147
57 -35 37 -49 77 -50 139 -1 69 16 114 56 153 59 57 143 75 214 45z m1955 5
c37 -10 117 -76 117 -96 0 -6 -12 -14 -26 -17 -20 -5 -30 -1 -44 17 -40 51
-138 61 -193 21 -72 -52 -74 -178 -4 -243 52 -47 165 -36 200 19 13 21 33 25
56 11 20 -13 -7 -53 -58 -87 -32 -21 -51 -25 -104 -25 -104 0 -166 44 -193
138 -48 166 86 308 249 262z m-4146 -19 c50 -30 62 -126 19 -154 -11 -8 -7
-16 20 -41 29 -27 34 -39 34 -76 -1 -84 -41 -109 -174 -109 l-96 0 0 200 0
200 83 0 c64 0 89 -4 114 -20z m313 -180 l0 -200 -30 0 -30 0 0 200 0 200 30
0 30 0 0 -200z m397 180 c51 -31 62 -128 18 -153 -13 -7 -9 -14 20 -41 29 -28
35 -40 35 -75 0 -88 -37 -111 -175 -111 l-95 0 0 200 0 200 83 0 c64 0 89 -4
114 -20z m313 -155 l0 -175 65 0 c63 0 65 -1 65 -25 0 -25 0 -25 -95 -25 l-95
0 0 200 0 200 30 0 30 0 0 -175z m510 150 c0 -25 -1 -25 -80 -25 l-80 0 0 -60
0 -59 68 -3 c61 -3 67 -5 70 -25 3 -22 0 -23 -67 -23 l-71 0 0 -65 0 -65 80 0
c79 0 80 0 80 -25 l0 -25 -110 0 -110 0 0 200 0 200 110 0 110 0 0 -25z m990
-60 l0 -85 100 0 100 0 0 85 c0 84 0 85 25 85 l25 0 0 -200 0 -200 -25 0 c-24
0 -24 2 -27 88 l-3 87 -97 3 -98 3 0 -91 0 -90 -30 0 -30 0 0 200 0 200 30 0
30 0 0 -85z m510 -64 c0 -135 2 -151 21 -175 16 -20 29 -26 59 -26 89 0 100
24 100 210 l0 140 31 0 31 0 -4 -157 c-4 -173 -9 -189 -65 -224 -44 -27 -136
-28 -172 -2 -52 38 -61 74 -61 236 l0 147 30 0 30 0 0 -149z m650 122 c56 -51
50 -147 -12 -179 -34 -18 -34 -18 26 -113 25 -39 46 -73 46 -76 0 -3 -15 -5
-32 -5 -31 0 -36 6 -82 90 -44 81 -52 90 -78 90 l-28 0 0 -90 0 -90 -30 0 -30
0 0 200 0 200 95 0 c89 0 96 -2 125 -27z m810 -58 l0 -85 95 0 95 0 0 85 0 85
30 0 30 0 0 -200 0 -200 -30 0 -30 0 0 90 0 90 -95 0 -95 0 0 -90 0 -90 -30 0
-30 0 0 200 0 200 30 0 30 0 0 -85z m250 -1155 l0 -60 -2470 0 -2470 0 0 60 0
60 2470 0 2470 0 0 -60z"/>
<path d="M371 2809 c-63 -12 -119 -52 -142 -102 -21 -47 -26 -167 -8 -214 14
-37 66 -90 107 -110 74 -35 194 -11 248 49 72 80 70 244 -3 320 -44 46 -131
71 -202 57z"/>
<path d="M180 1890 l0 -60 49 0 c40 0 53 4 65 22 36 51 3 98 -69 98 l-45 0 0
-60z"/>
<path d="M180 1715 l0 -65 60 0 c68 0 100 21 100 65 0 44 -32 65 -100 65 l-60
0 0 -65z"/>
<path d="M890 1890 l0 -61 52 3 c45 3 54 7 68 31 13 24 13 30 0 55 -14 23 -23
27 -68 30 l-52 3 0 -61z"/>
<path d="M890 1715 l0 -65 58 0 c71 1 96 17 96 65 0 48 -25 64 -96 65 l-58 0
0 -65z"/>
<path d="M3840 1890 l0 -60 58 0 c66 0 82 11 82 56 0 48 -22 64 -86 64 l-54 0
0 -60z"/>
</g>
</svg>
